#!OML:ASF I:\golf\golf\golf 2\Subject 1\2002-09-07\Subject1.ASF
:FULLY-SPECIFIED
:DEGREES
259
root 0.856483 16.1596 -5.28416 47.1403 7.6722 2.10031
lowerback 35.0682 7.9828 2.68568
upperback 17.6232 10.5498 7.23404
thorax 0.893149 4.86539 2.98699
lowerneck -10.6193 -9.83109 -5.17645
upperneck 0.823822 -12.429 -5.28937
head 2.0311 -6.42708 -1.44384
rclavicle 6.99722e-014 1.19271e-014
rhumerus 58.2111 -14.5424 -53.0895
rradius 24.1724
rwrist -1.28328
rhand -43.2549 26.9326
rfingers 7.12502
rthumb -16.1038 -2.41833
lclavicle 6.99722e-014 1.19271e-014
lhumerus -1.14826 -62.5238 64.7953
lradius 86.2046
lwrist -29.231
lhand -54.0238 25.4262
lfingers 7.12502
lthumb -26.4461 53.6011
rfemur -87.0758 -21.209 28.202
rtibia 62.0538
rfoot -14.2101 -8.66046
rtoes -18.4177
lfemur -89.7248 2.25438 -21.9995
ltibia 51.4633
lfoot -6.531 -18.3388
ltoes -0.215268
260
root 0.85287 16.1204 -5.26828 48.1692 7.78534 2.0928
lowerback 34.2183 8.01351 2.62776
upperback 17.6242 10.5443 7.17439
thorax 1.18845 4.87223 3.03258
lowerneck -10.6377 -9.85282 -5.19006
upperneck 0.680008 -12.4712 -5.1747
head 1.99396 -6.44305 -1.40317
rclavicle 6.36111e-015 -2.3059e-014
rhumerus 58.6505 -14.9211 -53.4311
rradius 24.3001
rwrist -0.721763
rhand -43.7791 27.3082
rfingers 7.12502
rthumb -16.6086 -2.0011
lclavicle 6.36111e-015 -2.3059e-014
lhumerus -1.47011 -62.3773 64.8751
lradius 86.444
lwrist -29.827
lhand -54.096 27.2386
lfingers 7.12502
lthumb -26.5152 55.4032
rfemur -88.3761 -21.0547 28.6651
rtibia 62.2469
rfoot -14.1555 -8.72202
rtoes -18.1993
lfemur -90.9396 2.20374 -22.0723
ltibia 51.6528
lfoot -7.01267 -18.2802
ltoes -2.85737
261
root 0.844205 16.1524 -5.22661 47.836 7.61709 1.98179
lowerback 35.1333 8.27622 2.35999
upperback 17.7298 10.7932 7.2754
thorax 0.914306 4.95444 3.11646
lowerneck -10.5875 -9.90309 -5.07964
upperneck 0.531538 -12.5697 -5.26477
head 1.92087 -6.49071 -1.44251
rclavicle -3.18055e-014 2.38542e-015
rhumerus 58.8725 -15.1932 -53.0771
rradius 24.4737
rwrist -0.85552
rhand -43.9843 27.6081
rfingers 7.12502
rthumb -16.8061 -1.68459
lclavicle -3.18055e-014 2.38542e-015
lhumerus -1.82716 -62.3035 65.1333
lradius 86.7192
lwrist -30.133
lhand -54.147 28.2065
lfingers 7.12502
lthumb -26.564 56.3637
rfemur -87.7504 -20.9311 28.5199
rtibia 62.2763
rfoot -14.371 -8.79365
rtoes -18.667
lfemur -90.4312 2.54666 -22.2836
ltibia 51.8191
lfoot -7.6842 -18.3642
ltoes -4.2496
262
root 0.86071 16.1195 -5.20839 48.5706 7.93393 2.0794
lowerback 34.6452 8.14638 2.74338
upperback 17.7327 10.7323 7.29492
thorax 1.14813 4.95388 3.014
lowerneck -10.416 -9.98067 -5.0669
upperneck 0.319572 -12.7085 -5.25463
head 1.81763 -6.55288 -1.42724
rclavicle 9.54166e-015 -7.15625e-015
rhumerus 58.9901 -15.5469 -52.5173
rradius 24.6602
rwrist -1.05241
rhand -43.7367 27.5088
rfingers 7.12502
rthumb -16.5677 -1.80392
lclavicle 9.54166e-015 -7.15625e-015
lhumerus -1.90539 -62.3979 65.2718
lradius 86.9136
lwrist -30.2328
lhand -54.3646 28.1026
lfingers 7.12502
lthumb -26.7722 56.2281
rfemur -88.6993 -21.1388 28.95
rtibia 62.4658
rfoot -14.3342 -8.86182
rtoes -19.3397
lfemur -91.3332 2.15931 -22.1016
ltibia 52.0557
lfoot -7.75553 -18.2562
ltoes -4.84578
263
root 0.870507 16.0894 -5.19142 49.3054 8.12667 2.18221
lowerback 34.248 8.06894 2.90939
upperback 17.6989 10.6746 7.27334
thorax 1.28371 4.94179 2.96201
lowerneck -10.2206 -9.99969 -5.12552
upperneck 0.0169811 -12.769 -5.13764
head 1.69288 -6.57125 -1.35897
rclavicle -5.40694e-014 -3.89618e-014
rhumerus 59.1841 -15.8136 -52.2716
rradius 24.8411
rwrist -0.841205
rhand -43.7131 27.3118
rfingers 7.12502
rthumb -16.545 -2.00289
lclavicle -5.40694e-014 -3.89618e-014
lhumerus -2.03207 -62.3634 65.3751
lradius 87.1077
lwrist -30.2951
lhand -54.8592 27.691
lfingers 7.12502
lthumb -27.2455 55.7432
rfemur -89.5694 -21.1939 29.224
rtibia 62.5422
rfoot -14.2727 -8.96453
rtoes -19.4153
lfemur -92.1804 1.88858 -22.0041
ltibia 52.1967
lfoot -7.6489 -18.1906
ltoes -4.90933
264
root 0.887159 16.0403 -5.17959 50.371 8.43622 2.3298
lowerback 33.4569 7.86003 3.22473
upperback 17.6126 10.4886 7.18817
thorax 1.54572 4.88632 2.84144
lowerneck -10.0588 -9.98432 -5.10726
upperneck -0.339237 -12.7932 -5.09724
head 1.54702 -6.57258 -1.32389
rclavicle 4.45278e-014 -2.22639e-014
rhumerus 59.403 -15.9631 -52.1261
rradius 24.8963
rwrist -0.22134
rhand -44.3044 27.2891
rfingers 7.12502
rthumb -17.1142 -1.97717
lclavicle 4.45278e-014 -2.22639e-014
lhumerus -2.30258 -62.2309 65.546
lradius 87.4708
lwrist -30.298
lhand -55.2957 27.9392
lfingers 7.12502
lthumb -27.663 55.925
rfemur -90.9438 -21.3384 29.7219
rtibia 62.7186
rfoot -14.1592 -9.00103
rtoes -19.5008
lfemur -93.4566 1.45802 -21.8194
ltibia 52.366
lfoot -7.39188 -18.1061
ltoes -4.56285
265
root 0.881678 16.094 -5.13175 49.7021 8.23251 2.19609
lowerback 34.7492 8.11818 2.98063
upperback 17.7368 10.756 7.29989
thorax 1.15687 4.97304 2.88821
lowerneck -9.87961 -10.0147 -5.0017
upperneck -0.671722 -12.8889 -5.16891
head 1.39306 -6.61212 -1.33913
rclavicle 3.81667e-014 -4.92986e-014
rhumerus 59.5199 -16.1789 -51.7213
rradius 24.9113
rwrist 0.322241
rhand -44.931 27.3913
rfingers 7.12502
rthumb -17.7173 -1.82152
lclavicle 3.81667e-014 -4.92986e-014
lhumerus -2.39375 -62.2822 65.5902
lradius 87.7917
lwrist -30.4629
lhand -55.4698 28.2497
lfingers 7.12502
lthumb -27.8294 56.2087
rfemur -89.7839 -21.2353 29.3693
rtibia 62.6314
rfoot -14.496 -9.07037
rtoes -19.8529
lfemur -92.4646 1.82984 -21.9766
ltibia 52.4003
lfoot -7.72794 -18.227
ltoes -4.36978
266
root 0.890532 16.075 -5.11182 50.3123 8.38398 2.27787
lowerback 34.265 8.12613 3.05572
upperback 17.7962 10.769 7.35023
thorax 1.39113 4.98794 2.94939
lowerneck -9.76291 -10.0874 -5.00824
upperneck -0.870678 -13.014 -5.15778
head 1.30722 -6.66865 -1.32369
rclavicle -4.13472e-014 3.81667e-014
rhumerus 59.7313 -16.5561 -51.4489
rradius 24.9959
rwrist 0.467288
rhand -45.078 27.6839
rfingers 7.12502
rthumb -17.8587 -1.51606
lclavicle -4.13472e-014 3.81667e-014
lhumerus -2.26403 -62.363 65.5076
lradius 87.9034
lwrist -30.8453
lhand -55.3224 28.1323
lfingers 7.12502
lthumb -27.6884 56.1141
rfemur -90.4577 -21.2992 29.6313
rtibia 62.6473
rfoot -14.4677 -9.14364
rtoes -20.3209
lfemur -93.0989 1.63255 -21.9268
ltibia 52.432
lfoot -7.83553 -18.1725
ltoes -5.18931
267
root 0.895497 16.0771 -5.08793 50.6421 8.46297 2.26928
lowerback 34.2464 8.14978 3.09402
upperback 17.8243 10.8029 7.38625
thorax 1.42647 5.00309 2.96189
lowerneck -9.63575 -10.1316 -5.14059
upperneck -1.02716 -13.0824 -5.03701
head 1.25 -6.69502 -1.25535
rclavicle -2.8625e-014 2.38542e-014
rhumerus 60.0688 -16.8714 -51.5641
rradius 25.0436
rwrist 0.601328
rhand -45.138 28.0337
rfingers 7.12502
rthumb -17.9164 -1.16108
lclavicle -2.8625e-014 2.38542e-014
lhumerus -2.42388 -62.3309 65.6401
lradius 88.0122
lwrist -31.137
lhand -54.9479 28.1554
lfingers 7.12502
lthumb -27.3303 56.1942
rfemur -90.7128 -21.3187 29.7875
rtibia 62.5394
rfoot -14.4862 -8.97748
rtoes -18.7175
lfemur -93.3453 1.60522 -21.9444
ltibia 52.3625
lfoot -7.96372 -18.1988
ltoes -5.69226
268
root 0.889526 16.1083 -5.0566 50.5407 8.34254 2.11333
lowerback 34.8391 8.33306 2.93389
upperback 17.8577 10.9854 7.43933
thorax 1.21312 5.06539 2.98648
lowerneck -9.53522 -10.1695 -5.34438
upperneck -1.12513 -13.1267 -4.88294
head 1.22403 -6.71014 -1.17007
rclavicle -5.40694e-014 -3.26007e-014
rhumerus 60.3084 -17.0433 -51.5509
rradius 25.1165
rwrist 0.752815
rhand -45.3525 28.0594
rfingers 7.12502
rthumb -18.1228 -1.11632
lclavicle -5.40694e-014 -3.26007e-014
lhumerus -2.76117 -62.3191 65.8606
lradius 88.2227
lwrist -31.3515
lhand -54.933 28.3099
lfingers 7.12502
lthumb -27.3161 56.3509
rfemur -90.3966 -21.1235 29.6463
rtibia 62.5921
rfoot -14.9045 -8.63819
rtoes -14.7784
lfemur -93.0885 1.91441 -22.0582
ltibia 52.3895
lfoot -8.15822 -18.3307
ltoes -5.36003
269
root 0.874612 16.1473 -5.01851 50.1966 8.02909 1.89617
lowerback 35.7107 8.7086 2.4865
upperback 17.9295 11.3151 7.53421
thorax 0.885497 5.17298 3.12178
lowerneck -9.67169 -10.2402 -5.81596
upperneck -0.886477 -13.14 -4.4342
head 1.38886 -6.71575 -0.985956
rclavicle -7.31528e-014 1.03368e-014
rhumerus 60.3861 -17.1611 -51.0931
rradius 25.2623
rwrist 0.603026
rhand -45.5871 28.0469
rfingers 7.12502
rthumb -18.3485 -1.10776
lclavicle -7.31528e-014 1.03368e-014
lhumerus -2.85258 -62.3707 65.8346
lradius 88.4451
lwrist -31.6053
lhand -55.1024 28.3505
lfingers 7.12502
lthumb -27.4781 56.3659
rfemur -89.6949 -20.7559 29.382
rtibia 62.5496
rfoot -15.2281 -8.67924
rtoes -14.1515
lfemur -92.5322 2.46667 -22.3007
ltibia 52.4069
lfoot -8.41328 -18.5412
ltoes -4.93579
270
root 0.927607 16.0138 -5.03751 52.6241 8.89556 2.43057
lowerback 32.8345 8.0328 3.50678
upperback 17.7884 10.7212 7.37007
thorax 1.96786 5.00616 2.89947
lowerneck -9.71702 -10.3301 -6.20381
upperneck -0.826186 -13.2123 -3.98893
head 1.47503 -6.74592 -0.804637
rclavicle -4.45278e-014 2.38542e-014
rhumerus 60.3573 -17.3503 -50.351
rradius 25.4092
rwrist 0.352021
rhand -45.833 28.1132
rfingers 7.12502
rthumb -18.5851 -1.01897
lclavicle -4.45278e-014 2.38542e-014
lhumerus -2.70144 -62.529 65.7155
lradius 88.5984
lwrist -31.7511
lhand -55.3825 28.4088
lfingers 7.12502
lthumb -27.7459 56.3814
rfemur -93.0531 -21.402 30.7209
rtibia 62.8151
rfoot -14.6132 -8.9346
rtoes -17.6497
lfemur -95.4966 1.05911 -21.7257
ltibia 52.5724
lfoot -7.84362 -18.1321
ltoes -5.18444
271
root 0.929314 16.0464 -5.00375 52.2158 8.8573 2.27485
lowerback 33.6957 8.16663 3.48042
upperback 17.8799 10.8929 7.4689
thorax 1.72976 5.06737 2.89024
lowerneck -9.45171 -10.3471 -6.12517
upperneck -1.3051 -13.3057 -3.92173
head 1.2704 -6.77835 -0.763495
rclavicle -5.725e-014 3.18055e-015
rhumerus 60.4829 -17.5464 -50.0216
rradius 25.437
rwrist 0.483454
rhand -46.0241 28.1481
rfingers 7.12502
rthumb -18.7689 -0.966408
lclavicle -5.725e-014 3.18055e-015
lhumerus -2.68137 -62.589 65.6774
lradius 88.786
lwrist -31.593
lhand -55.7135 28.4113
lfingers 7.12502
lthumb -28.0624 56.3325
rfemur -92.3326 -21.3748 30.6998
rtibia 62.7317
rfoot -14.7023 -9.12311
rtoes -19.5977
lfemur -94.9184 1.26633 -21.6984
ltibia 52.6389
lfoot -8.03539 -18.1903
ltoes -5.05861
